<svg xmlns="http://www.w3.org/2000/svg" width="276.61" height="87.794" viewBox="-56 -18 276.61 87.794" fill="#FF70B5">
  <!-- Same mark as logo-pink-colored.svg; expanded viewBox adds even spacing between repeats. -->
  <path d="M 2.69 14.464 C 7.914 5.716 20.485 -1.519 34.361 0.275 C 48.237 2.07 53.679 7.902 53.516 13.959 C 53.353 20.016 44.374 22.988 44.374 22.988 C 52.536 25.343 59.775 29.381 56.945 39.083 C 54.115 49.289 44.049 50.636 42.143 51.141 C 40.494 51.578 29.481 53.445 22.226 47.89 C 20.086 46.251 18.498 43.958 17.736 41.325 C 15.718 34.356 20.703 32.273 20.703 32.273 C 28.782 29.671 30.998 36.5 31.151 39.562 C 31.304 42.623 30.029 44.474 28.403 45.287 C 27.463 45.757 26.226 45.572 25.322 45.033 C 23.985 44.377 23.372 42.794 23.48 42.424 C 26.257 43.595 26.635 41.903 26.635 41.903 C 27.14 40.212 26.559 38.165 25.722 37.338 C 24.909 36.533 23.768 36.187 22.654 36.369 C 19.421 36.897 19.52 39.624 19.944 41.382 C 20.175 42.34 20.637 43.221 21.277 43.955 C 27.345 50.915 38.67 48.286 43.449 42.896 C 51.261 32.613 43.449 27.904 43.449 27.904 C 34.486 21.797 21.996 26.874 21.9 26.913 C 22.009 17.174 20.077 5.042 20.077 5.042 C 26.498 2.434 33.708 3.837 37.318 5.622 C 37.399 5.758 37.318 6.258 37.318 6.258 C 30.788 9.679 31.151 23.381 31.151 23.381 C 40.257 22.822 42.668 16.595 42.687 16.546 C 42.687 16.546 46.151 6.743 34.234 3.042 C 24.62 0.687 17.364 3.902 13.156 6.968 C 3.397 15.137 10.417 22.932 20.086 22.39 C 20.049 23.773 17.655 34.429 10.418 36.672 C -0.248 39.532 -2.534 23.212 2.69 14.464 Z M 96.179 24.308 L 99.907 24.392 L 99.933 25.687 C 99.921 25.687 97.636 25.751 96.397 25.794 C 96.025 25.807 95.995 25.736 95.989 26.146 C 95.915 31.251 95.895 36.81 95.957 41.812 C 95.968 42.694 95.988 43.788 96.157 44.703 C 96.342 45.702 97.411 46.262 98.295 45.811 C 99.352 45.271 100.228 44.24 100.492 45.03 C 99.378 49.645 95.301 51.771 90.574 50.362 C 87.365 48.569 87.255 45.926 87.091 42.375 C 87.18 40.703 88.587 26.131 84.234 25.626 C 84.233 25.081 84.235 24.517 84.234 23.972 C 90.969 23.835 93.091 22.476 96.104 16.548 C 96.494 16.572 97.412 16.548 97.43 16.548 L 96.179 24.308 Z M 112.437 24.307 L 116.166 24.391 L 116.192 25.686 C 116.192 25.686 113.897 25.749 112.655 25.793 C 112.283 25.806 112.253 25.735 112.247 26.145 C 112.173 31.25 112.154 36.809 112.215 41.812 C 112.226 42.693 112.245 43.787 112.415 44.702 C 112.6 45.701 113.669 46.261 114.553 45.81 C 115.61 45.27 116.487 44.239 116.751 45.029 C 115.637 49.644 111.559 51.77 106.833 50.361 C 103.624 48.568 103.513 45.925 103.349 42.374 C 103.438 40.702 104.846 26.13 100.493 25.625 C 100.492 25.08 100.494 24.516 100.493 23.971 C 107.228 23.834 109.35 22.475 112.363 16.547 C 112.755 16.571 113.678 16.547 113.689 16.547 L 112.437 24.307 Z M 68.045 24.167 C 68.904 25.867 68.237 33.364 67.179 36.477 C 66.583 38.621 65.979 41.59 65.941 42.543 C 65.887 43.926 65.76 50.076 70.603 47.16 C 74.252 43.394 74.573 32.693 73.215 24.971 L 73.215 24.398 L 83.317 24.398 L 83.317 24.971 C 80.515 38.134 82.415 42.99 83.474 49.614 L 73.215 49.614 L 73.215 48.955 C 73.223 48.923 74.43 44.02 74.25 43.534 C 74.24 43.577 72.758 50.079 66.025 50.776 C 61.127 50.648 59.522 48.573 59.17 44.753 C 58.78 37.74 62.412 34.281 57.815 24.971 L 57.724 24.167 L 68.045 24.167 Z M 164.61 14.082 C 164.61 14.082 160.773 32.242 164.583 48.954 L 164.583 49.628 L 154.416 49.628 C 154.416 49.628 154.406 49.122 154.416 48.954 C 154.834 46.801 155.167 44.672 155.422 42.573 C 153.371 47.549 149.713 50.534 146.625 50.524 C 142.36 50.532 140.684 47.678 139.986 43.997 C 139.459 41.217 139.539 38.352 140.257 35.618 C 142.006 28.97 146.767 22.257 153.155 23.316 C 154.437 23.552 155.312 24.301 155.9 25.423 C 155.634 21.352 155.109 17.545 154.416 14.082 L 154.416 13.362 L 164.61 13.362 L 164.61 14.082 Z M 131.316 25.961 C 132.154 25.069 134.953 22.568 138.837 23.535 C 141.274 24.142 142.653 26.129 141.326 29.352 C 140.03 31.878 136.387 32.592 134.182 32.018 C 131.171 31.232 132.405 27.736 132.405 27.736 L 131.701 27.608 C 126.269 35.818 128.74 48.903 128.75 48.954 L 128.75 49.613 L 118.607 49.623 L 118.607 49.031 C 118.62 48.981 122.021 35.866 118.455 24.951 C 118.412 24.819 118.454 24.399 118.455 24.391 L 128.647 24.397 L 128.631 24.977 C 126.846 32.896 127.177 38.054 127.18 38.111 C 127.505 29.478 131.281 25.993 131.316 25.961 Z M 154.025 25.363 C 150.12 24.581 148.054 34.01 148.04 34.074 C 148.04 34.074 145.5 44.281 149.237 46.187 C 152.828 47.44 155.186 39.683 155.803 37.028 C 155.803 37.028 157.29 26.578 154.025 25.363 Z M 18.43 33.444 C 19.945 29.931 28.782 26.807 33.328 33.408 C 37.113 39.17 35.472 46.848 28.024 45.677 C 32.569 43.985 32.442 37.869 30.422 34.876 C 27.704 30.847 23.227 29.41 18.43 33.444 Z M 20.745 30.685 C 25.037 26.438 32.316 26.569 35.851 30.321 C 40.522 34.876 38.881 44.506 33.579 44.849 C 37.113 42.246 36.235 35.917 34.084 33.006 C 31.487 29.492 26.804 27.691 20.745 30.685 Z M 23.903 28.129 C 27.185 25.834 35.221 24.958 38.755 28.711 C 44.562 34.876 40.145 42.505 37.62 43.026 C 39.513 40.864 40.649 34.357 37.367 30.713 C 34.449 27.473 29.71 26.225 23.903 28.129 Z" fill="currentColor" fill-rule="evenodd"></path>
</svg>
