<svg xmlns="http://www.w3.org/2000/svg" width="164.610" height="51.793" viewBox="0 0 164.610 51.793" fill="#A0E3F7">
  <path d="M 2.69 14.463 C 7.914 5.714 20.485 -1.519 34.361 0.275 C 48.237 2.07 53.68 7.902 53.516 13.959 C 53.353 19.988 44.454 22.961 44.375 22.987 C 52.537 25.343 59.774 29.381 56.944 39.083 C 54.114 49.289 44.048 50.635 42.143 51.14 C 40.493 51.577 29.482 53.444 22.227 47.889 C 20.086 46.25 18.498 43.957 17.736 41.324 C 15.722 34.366 20.687 32.279 20.703 32.273 C 28.782 29.67 30.997 36.499 31.151 39.561 C 31.304 42.622 30.029 44.473 28.403 45.287 C 27.464 45.757 26.226 45.571 25.322 45.033 C 23.985 44.376 23.373 42.795 23.48 42.424 C 26.257 43.595 26.636 41.903 26.636 41.903 C 27.14 40.211 26.559 38.164 25.722 37.336 C 24.909 36.532 23.768 36.187 22.655 36.369 C 19.422 36.896 19.52 39.623 19.944 41.381 C 20.175 42.339 20.637 43.22 21.277 43.954 C 27.345 50.915 38.67 48.285 43.449 42.896 C 51.242 32.638 43.488 27.928 43.449 27.904 C 34.479 21.791 21.976 26.882 21.9 26.913 C 22.009 17.173 20.077 5.041 20.077 5.041 C 26.498 2.433 33.708 3.837 37.318 5.622 C 37.399 5.758 37.318 6.257 37.318 6.257 C 30.788 9.678 31.151 23.38 31.151 23.38 C 40.293 22.82 42.687 16.545 42.687 16.545 C 42.707 16.489 46.118 6.732 34.235 3.041 C 24.621 0.686 17.364 3.902 13.156 6.968 C 3.398 15.136 10.418 22.931 20.086 22.389 C 20.049 23.772 17.655 34.428 10.418 36.671 C -0.248 39.531 -2.534 23.211 2.69 14.463 Z M 96.179 24.306 L 99.908 24.39 L 99.934 25.685 C 99.908 25.685 97.632 25.749 96.397 25.792 C 96.025 25.805 95.995 25.734 95.989 26.143 C 95.915 31.248 95.895 36.808 95.957 41.81 C 95.968 42.692 95.988 43.785 96.157 44.7 C 96.342 45.699 97.412 46.26 98.296 45.808 C 99.352 45.269 100.23 44.238 100.493 45.028 C 99.379 49.643 95.301 51.769 90.574 50.361 C 87.366 48.567 87.256 45.924 87.092 42.373 C 87.181 40.702 88.588 26.129 84.234 25.624 C 84.234 25.079 84.235 24.514 84.234 23.969 C 90.969 23.832 93.093 22.474 96.105 16.546 C 96.5 16.57 97.431 16.546 97.431 16.546 L 96.179 24.306 Z M 112.438 24.306 L 116.165 24.39 L 116.192 25.685 C 116.192 25.685 113.898 25.749 112.656 25.792 C 112.283 25.805 112.254 25.734 112.248 26.143 C 112.174 31.248 112.154 36.808 112.216 41.81 C 112.227 42.692 112.246 43.785 112.415 44.7 C 112.6 45.699 113.671 46.26 114.555 45.808 C 115.611 45.268 116.487 44.238 116.75 45.028 C 115.637 49.642 111.56 51.769 106.833 50.361 C 103.625 48.567 103.514 45.924 103.351 42.373 C 103.439 40.702 104.847 26.129 100.493 25.624 C 100.492 25.079 100.494 24.514 100.493 23.969 C 107.228 23.832 109.351 22.474 112.364 16.546 C 112.758 16.57 113.69 16.546 113.69 16.546 L 112.438 24.306 Z M 68.047 24.165 C 68.905 25.865 68.238 33.362 67.18 36.475 C 66.585 38.618 65.98 41.587 65.942 42.541 C 65.888 43.924 65.76 50.075 70.604 47.158 C 74.253 43.392 74.574 32.692 73.216 24.97 L 73.216 24.397 L 83.318 24.397 L 83.318 24.97 C 80.516 38.132 82.415 42.988 83.474 49.612 L 73.216 49.612 L 73.216 48.953 C 73.216 48.953 74.432 44.017 74.251 43.531 C 74.251 43.531 72.781 50.074 66.027 50.774 C 61.129 50.645 59.523 48.571 59.171 44.751 C 58.781 37.739 62.413 34.279 57.816 24.97 L 57.726 24.165 L 68.047 24.165 Z M 164.61 14.08 C 164.598 14.138 160.78 32.268 164.583 48.953 L 164.583 49.626 L 154.416 49.626 C 154.416 49.626 154.407 49.122 154.416 48.953 C 154.835 46.8 155.168 44.671 155.423 42.572 C 153.372 47.547 149.714 50.532 146.626 50.523 C 142.362 50.53 140.685 47.676 139.987 43.995 C 139.46 41.215 139.541 38.35 140.259 35.616 C 142.008 28.967 146.769 22.255 153.157 23.314 C 154.438 23.549 155.313 24.299 155.901 25.42 C 155.635 21.35 155.11 17.543 154.416 14.08 L 154.416 13.36 L 164.61 13.36 L 164.61 14.08 Z M 131.317 25.958 C 132.156 25.066 134.954 22.567 138.838 23.533 C 141.274 24.14 142.654 26.127 141.327 29.35 C 140.031 31.876 136.387 32.59 134.182 32.016 C 131.172 31.23 132.406 27.735 132.406 27.735 L 131.701 27.607 C 126.278 35.803 128.733 48.862 128.75 48.952 L 128.75 49.611 L 118.609 49.62 L 118.609 49.029 C 118.634 48.932 122.016 35.845 118.456 24.95 C 118.434 24.884 118.434 24.744 118.439 24.62 L 118.456 24.389 L 128.648 24.397 L 128.632 24.974 C 126.836 32.938 127.18 38.111 127.18 38.111 C 127.507 29.437 131.317 25.958 131.317 25.958 Z M 154.026 25.361 C 150.126 24.581 148.058 33.989 148.04 34.072 C 148.04 34.072 145.501 44.279 149.237 46.186 C 152.829 47.439 155.187 39.681 155.804 37.026 C 155.804 37.026 157.291 26.576 154.026 25.361 Z M 18.43 33.443 C 19.945 29.929 28.78 26.806 33.326 33.407 C 37.112 39.169 35.472 46.846 28.024 45.675 C 32.568 43.983 32.441 37.866 30.422 34.873 C 27.703 30.845 23.227 29.409 18.43 33.443 Z M 20.745 30.683 C 25.037 26.437 32.315 26.568 35.85 30.321 C 40.52 34.875 38.879 44.504 33.577 44.847 C 37.112 42.244 36.234 35.915 34.082 33.004 C 31.485 29.491 26.804 27.691 20.745 30.683 Z M 23.903 28.127 C 27.186 25.832 35.22 24.956 38.755 28.709 C 44.561 34.873 40.144 42.501 37.619 43.023 C 39.512 40.86 40.648 34.354 37.366 30.711 C 34.449 27.471 29.71 26.223 23.903 28.127 Z" fill="currentColor" fill-rule="nonzero"></path>
</svg>