<svg xmlns="http://www.w3.org/2000/svg" width="176.996" height="64.179" viewBox="0 0 176.996 64.179" fill="#1a1208">
  <path d="M 40.553 6.468 C 26.677 4.674 14.107 11.907 8.882 20.656 C 3.658 29.404 5.944 45.724 16.61 42.864 C 23.848 40.621 26.242 29.965 26.278 28.581 C 16.61 29.124 9.591 21.329 19.349 13.16 C 23.557 10.095 30.814 6.879 40.428 9.234 C 52.311 12.925 48.899 22.682 48.88 22.738 C 48.88 22.738 46.485 29.013 37.343 29.573 C 37.343 29.573 36.981 15.871 43.511 12.45 C 43.511 12.45 43.591 11.951 43.511 11.815 C 39.901 10.03 32.691 8.626 26.269 11.234 C 26.269 11.234 28.202 23.366 28.093 33.105 C 28.168 33.075 40.672 27.984 49.642 34.097 C 49.681 34.121 57.434 38.831 49.642 49.089 C 44.863 54.478 33.538 57.108 27.47 50.147 C 26.83 49.413 26.367 48.532 26.136 47.574 C 25.712 45.816 25.615 43.089 28.847 42.562 C 29.961 42.38 31.101 42.725 31.915 43.529 C 32.752 44.356 33.333 46.404 32.828 48.096 C 32.828 48.096 32.449 49.788 29.673 48.617 C 29.566 48.988 30.178 50.569 31.514 51.225 C 32.419 51.764 33.656 51.95 34.596 51.479 C 36.222 50.666 37.497 48.815 37.343 45.753 C 37.19 42.692 34.974 35.863 26.895 38.466 C 26.879 38.472 21.915 40.559 23.929 47.516 C 24.691 50.15 26.279 52.443 28.419 54.082 C 35.674 59.637 46.686 57.769 48.336 57.332 C 50.24 56.828 60.307 55.482 63.137 45.276 C 65.966 35.574 58.73 31.535 50.567 29.18 C 50.646 29.154 59.546 26.181 59.709 20.152 C 59.872 14.095 54.43 8.263 40.553 6.468 Z M 103.624 22.739 C 103.624 22.739 102.692 22.763 102.298 22.739 C 99.285 28.667 97.162 30.025 90.427 30.162 C 90.428 30.707 90.426 31.272 90.427 31.817 C 94.78 32.322 93.373 46.895 93.285 48.566 C 93.448 52.116 93.558 54.76 96.767 56.554 C 101.494 57.962 105.572 55.836 106.686 51.221 C 106.422 50.431 105.545 51.461 104.489 52.001 C 103.605 52.453 102.534 51.892 102.349 50.893 C 102.18 49.978 102.161 48.885 102.15 48.003 C 102.088 43.001 102.108 37.441 102.181 32.336 C 102.187 31.927 102.218 31.998 102.59 31.985 C 103.824 31.942 106.1 31.878 106.126 31.878 L 106.101 30.583 L 102.372 30.499 L 103.624 22.739 Z M 119.883 22.739 C 119.883 22.739 118.951 22.763 118.557 22.739 C 115.544 28.667 113.421 30.025 106.686 30.162 C 106.687 30.707 106.685 31.272 106.686 31.817 C 111.039 32.322 109.632 46.895 109.543 48.566 C 109.707 52.116 109.817 54.76 113.026 56.554 C 117.752 57.962 121.829 55.835 122.943 51.221 C 122.679 50.431 121.804 51.461 120.747 52.001 C 119.863 52.453 118.793 51.892 118.608 50.893 C 118.439 49.978 118.419 48.885 118.408 48.003 C 118.347 43.001 118.367 37.441 118.44 32.336 C 118.446 31.927 118.476 31.998 118.848 31.985 C 120.09 31.942 122.385 31.878 122.385 31.878 L 122.358 30.583 L 118.631 30.499 L 119.883 22.739 Z M 63.918 30.358 L 64.009 31.162 C 68.606 40.472 64.973 43.931 65.364 50.944 C 65.716 54.764 67.322 56.838 72.219 56.967 C 78.974 56.267 80.443 49.724 80.443 49.724 C 80.625 50.21 79.409 55.146 79.409 55.146 L 79.409 55.805 L 89.666 55.805 C 88.607 49.181 86.708 44.325 89.511 31.162 L 89.511 30.589 L 79.409 30.589 L 79.409 31.162 C 80.767 38.885 80.445 49.585 76.796 53.351 C 71.953 56.268 72.08 50.117 72.135 48.734 C 72.172 47.78 72.777 44.811 73.373 42.667 C 74.43 39.555 75.098 32.058 74.239 30.358 L 63.918 30.358 Z M 160.609 19.553 L 160.609 20.273 C 161.302 23.736 161.827 27.543 162.094 31.613 C 161.506 30.492 160.631 29.742 159.349 29.507 C 152.961 28.448 148.201 35.16 146.452 41.809 C 145.734 44.542 145.652 47.408 146.18 50.188 C 146.878 53.869 148.555 56.723 152.819 56.716 C 155.907 56.725 159.564 53.74 161.616 48.765 C 161.36 50.864 161.028 52.993 160.609 55.146 C 160.6 55.315 160.609 55.819 160.609 55.819 L 170.776 55.819 L 170.776 55.146 C 166.972 38.461 170.791 20.331 170.803 20.273 L 170.803 19.553 L 160.609 19.553 Z M 145.03 29.726 C 141.147 28.759 138.348 31.259 137.51 32.151 C 137.51 32.151 133.699 35.63 133.373 44.303 C 133.373 44.303 133.029 39.131 134.824 31.167 L 134.841 30.589 L 124.648 30.582 L 124.632 30.813 C 124.626 30.937 124.627 31.077 124.648 31.143 C 128.209 42.038 124.826 55.125 124.801 55.222 L 124.801 55.813 L 134.942 55.804 L 134.942 55.145 C 134.925 55.054 132.471 41.996 137.894 33.799 L 138.598 33.928 C 138.598 33.928 137.364 37.423 140.375 38.208 C 142.579 38.783 146.224 38.069 147.519 35.543 C 148.846 32.32 147.467 30.333 145.03 29.726 Z M 154.233 40.265 C 154.251 40.181 156.318 30.774 160.219 31.554 C 163.484 32.769 161.997 43.219 161.997 43.219 C 161.38 45.874 159.022 53.632 155.43 52.379 C 151.694 50.472 154.233 40.265 154.233 40.265 Z M 39.519 39.6 C 34.973 32.999 26.137 36.122 24.623 39.636 C 29.419 35.602 33.896 37.037 36.614 41.066 C 38.634 44.059 38.761 50.176 34.216 51.868 C 41.664 53.039 43.304 45.361 39.519 39.6 Z M 42.043 36.514 C 38.508 32.761 31.229 32.63 26.937 36.876 C 32.996 33.883 37.678 35.684 40.275 39.197 C 42.426 42.108 43.304 48.437 39.77 51.039 C 45.072 50.697 46.713 41.068 42.043 36.514 Z M 44.947 34.902 C 41.413 31.149 33.378 32.025 30.096 34.32 C 35.903 32.416 40.641 33.664 43.559 36.904 C 46.841 40.547 45.705 47.053 43.812 49.216 C 46.336 48.694 50.753 41.066 44.947 34.902 Z M 21.178 20.258 C 21.009 20.542 20.923 20.752 20.885 20.878 C 20.872 20.92 20.867 20.954 20.862 20.979 C 20.914 21.05 21.04 21.198 21.29 21.377 C 21.253 20.998 21.217 20.625 21.178 20.258 Z M 141.135 55.804 C 141.135 59.222 138.366 61.994 134.948 61.997 L 124.807 62.006 C 123.975 62.007 123.159 61.838 122.406 61.522 C 122.354 61.551 122.304 61.584 122.252 61.611 C 118.828 63.436 114.904 63.575 111.257 62.488 C 110.821 62.359 110.4 62.181 110.003 61.959 C 109.189 61.504 108.461 60.993 107.809 60.437 C 107.245 60.872 106.639 61.267 105.993 61.611 C 102.57 63.436 98.646 63.575 94.998 62.488 C 94.562 62.359 94.141 62.181 93.744 61.959 C 93.346 61.737 92.969 61.499 92.61 61.252 C 91.716 61.735 90.707 61.999 89.666 61.999 L 79.409 61.999 C 78.858 61.999 78.324 61.925 77.815 61.79 C 76.383 62.45 74.737 62.932 72.857 63.127 C 72.592 63.154 72.325 63.165 72.058 63.158 C 68.883 63.075 65.449 62.343 62.806 59.814 C 62.312 59.341 61.884 58.843 61.514 58.329 C 60.46 59.143 59.382 59.826 58.327 60.394 C 56.263 61.507 54.288 62.191 52.746 62.629 C 51.971 62.849 51.293 63.01 50.773 63.128 C 50.537 63.181 50.272 63.24 50.138 63.27 L 49.922 63.319 C 48.499 63.696 44.705 64.343 40.202 64.141 C 35.726 63.941 29.706 62.866 24.654 58.999 C 21.675 56.717 19.413 53.58 18.207 49.967 L 17.98 49.239 C 17.95 49.133 17.921 49.027 17.893 48.923 C 13.686 49.963 9.624 49.243 6.376 46.727 C 3.298 44.343 1.627 40.879 0.793 37.67 C -0.847 31.36 0.046 23.373 3.565 17.48 L 3.876 16.972 C 10.528 6.346 25.29 -1.75 41.347 0.326 C 48.928 1.307 54.977 3.474 59.245 6.86 C 63.684 10.382 66.04 15.144 65.901 20.318 L 65.901 20.32 C 65.863 21.723 65.598 23.003 65.182 24.165 L 74.239 24.165 C 75.245 24.165 76.213 24.409 77.074 24.853 C 77.795 24.559 78.583 24.396 79.409 24.396 L 88.165 24.396 C 88.829 24.136 89.548 23.985 90.302 23.97 C 93.471 23.906 94.226 23.527 94.467 23.376 C 94.705 23.226 95.358 22.724 96.776 19.933 C 97.895 17.732 100.215 16.406 102.679 16.558 C 102.619 16.554 102.732 16.558 103.042 16.555 C 103.158 16.554 103.266 16.552 103.346 16.55 C 103.385 16.55 103.418 16.549 103.438 16.549 C 103.448 16.549 103.455 16.547 103.459 16.547 L 103.462 16.547 L 103.807 16.549 C 105.524 16.599 107.148 17.362 108.285 18.663 C 109.494 20.045 110.026 21.892 109.74 23.705 C 110.356 23.584 110.605 23.451 110.726 23.376 C 110.964 23.226 111.616 22.724 113.035 19.933 C 114.153 17.732 116.473 16.406 118.938 16.558 C 118.877 16.554 118.989 16.558 119.3 16.555 C 119.416 16.554 119.525 16.552 119.604 16.55 C 119.644 16.55 119.676 16.549 119.697 16.549 C 119.706 16.549 119.714 16.547 119.718 16.547 L 119.721 16.547 C 121.563 16.499 123.332 17.275 124.546 18.663 C 125.758 20.05 126.29 21.906 125.997 23.725 L 125.89 24.389 L 134.846 24.396 C 135.628 24.397 136.395 24.546 137.109 24.827 C 139.461 23.614 142.672 22.757 146.526 23.716 L 146.527 23.716 C 147.782 24.028 149.117 24.587 150.326 25.467 C 151.702 24.607 153.239 23.931 154.916 23.548 C 154.796 22.848 154.671 22.161 154.536 21.49 C 154.456 21.09 154.416 20.681 154.416 20.273 L 154.416 19.553 C 154.416 16.133 157.188 13.36 160.609 13.36 L 170.803 13.36 L 171.122 13.368 C 174.394 13.534 176.996 16.24 176.996 19.553 L 176.996 20.273 C 176.996 20.702 176.951 21.131 176.863 21.551 C 176.863 21.551 173.337 38.513 176.815 53.77 C 176.917 54.222 176.969 54.683 176.969 55.146 L 176.969 55.819 C 176.969 59.239 174.196 62.012 170.776 62.012 L 160.609 62.012 C 159.792 62.012 159.012 61.852 158.297 61.565 C 156.654 62.384 154.81 62.908 152.829 62.907 C 152.824 62.907 152.818 62.907 152.813 62.907 C 152.809 62.907 152.805 62.909 152.801 62.909 L 152.801 62.907 C 149.114 62.907 145.871 61.586 143.527 58.943 C 142.436 57.711 141.674 56.34 141.131 54.984 C 141.132 55.038 141.135 55.091 141.135 55.145 L 141.135 55.804 Z" fill="currentColor" fill-rule="nonzero"></path>
</svg>