<svg xmlns="http://www.w3.org/2000/svg" width="164.610" height="51.794" viewBox="0 0 164.610 51.794" fill="none">
  <path d="M 2.69 14.464 C 7.914 5.715 20.485 -1.519 34.362 0.275 C 48.238 2.07 53.679 7.902 53.516 13.959 C 53.353 20.002 44.414 22.975 44.374 22.988 C 52.537 25.343 59.775 29.381 56.945 39.083 C 54.115 49.29 44.048 50.636 42.143 51.141 C 40.493 51.578 29.481 53.445 22.226 47.89 C 20.086 46.251 18.498 43.958 17.736 41.325 C 15.725 34.381 20.668 32.288 20.703 32.273 C 28.782 29.671 30.997 36.5 31.151 39.562 C 31.304 42.623 30.028 44.474 28.403 45.287 C 27.463 45.757 26.226 45.572 25.322 45.033 C 23.985 44.377 23.372 42.794 23.48 42.424 C 26.257 43.595 26.636 41.903 26.636 41.903 C 27.141 40.212 26.559 38.165 25.723 37.338 C 24.909 36.533 23.768 36.187 22.654 36.369 C 19.422 36.897 19.52 39.624 19.944 41.382 C 20.175 42.34 20.638 43.221 21.278 43.955 C 27.346 50.915 38.671 48.286 43.45 42.896 C 51.261 32.613 43.45 27.904 43.45 27.904 C 34.465 21.781 21.935 26.899 21.9 26.913 C 22.009 17.174 20.077 5.042 20.077 5.042 C 26.498 2.434 33.709 3.837 37.319 5.622 C 37.399 5.758 37.319 6.258 37.319 6.258 C 30.789 9.679 31.151 23.381 31.151 23.381 C 40.267 22.822 42.674 16.581 42.688 16.546 C 42.688 16.546 46.152 6.743 34.235 3.042 C 24.621 0.687 17.365 3.902 13.157 6.968 C 3.398 15.137 10.418 22.932 20.086 22.39 C 20.05 23.773 17.655 34.429 10.417 36.672 C -0.248 39.532 -2.534 23.212 2.69 14.464 Z M 96.179 24.308 L 99.907 24.392 L 99.934 25.687 C 99.934 25.687 97.639 25.75 96.397 25.794 C 96.025 25.807 95.995 25.736 95.989 26.146 C 95.915 31.251 95.896 36.81 95.957 41.813 C 95.968 42.694 95.987 43.788 96.157 44.703 C 96.342 45.702 97.411 46.262 98.295 45.811 C 99.352 45.271 100.229 44.24 100.493 45.03 C 99.379 49.645 95.301 51.771 90.575 50.362 C 87.366 48.569 87.255 45.926 87.091 42.375 C 87.18 40.703 88.588 26.132 84.235 25.626 C 84.234 25.081 84.236 24.517 84.235 23.972 C 90.969 23.835 93.092 22.476 96.105 16.548 C 96.499 16.572 97.431 16.548 97.431 16.548 L 96.179 24.308 Z M 112.438 24.307 L 116.165 24.391 L 116.192 25.686 C 116.156 25.687 113.888 25.75 112.656 25.793 C 112.283 25.806 112.254 25.735 112.247 26.145 C 112.174 31.25 112.153 36.809 112.215 41.812 C 112.226 42.693 112.246 43.787 112.415 44.702 C 112.6 45.701 113.67 46.261 114.554 45.81 C 115.611 45.27 116.488 44.239 116.751 45.029 C 115.638 49.644 111.559 51.77 106.832 50.361 C 103.624 48.568 103.513 45.925 103.35 42.374 C 103.439 40.702 104.846 26.13 100.493 25.625 C 100.492 25.08 100.493 24.516 100.493 23.971 C 107.227 23.834 109.35 22.475 112.363 16.547 C 112.757 16.571 113.69 16.547 113.69 16.547 L 112.438 24.307 Z M 68.046 24.167 C 68.905 25.867 68.237 33.364 67.179 36.477 C 66.583 38.621 65.979 41.59 65.942 42.543 C 65.887 43.926 65.759 50.076 70.603 47.16 C 74.252 43.394 74.574 32.693 73.216 24.971 L 73.216 24.398 L 83.318 24.398 L 83.318 24.971 C 80.515 38.134 82.415 42.99 83.474 49.614 L 73.216 49.614 L 73.216 48.955 C 73.226 48.915 74.43 44.02 74.25 43.534 C 74.243 43.568 72.763 50.079 66.026 50.776 C 61.128 50.648 59.523 48.573 59.171 44.753 C 58.781 37.74 62.412 34.281 57.815 24.971 L 57.725 24.167 L 68.046 24.167 Z M 164.61 14.082 C 164.602 14.118 160.777 32.259 164.582 48.954 L 164.582 49.628 L 154.415 49.628 C 154.415 49.628 154.406 49.122 154.415 48.954 C 154.834 46.801 155.167 44.672 155.422 42.573 C 153.371 47.549 149.713 50.534 146.624 50.524 C 142.361 50.532 140.684 47.678 139.986 43.997 C 139.458 41.217 139.54 38.352 140.258 35.618 C 142.007 28.97 146.767 22.258 153.155 23.316 C 154.437 23.552 155.312 24.301 155.9 25.423 C 155.634 21.352 155.109 17.545 154.415 14.082 L 154.415 13.362 L 164.61 13.362 L 164.61 14.082 Z M 131.317 25.961 C 132.155 25.069 134.954 22.568 138.838 23.535 C 141.274 24.142 142.654 26.129 141.327 29.352 C 140.031 31.878 136.388 32.592 134.183 32.018 C 131.172 31.232 132.405 27.736 132.405 27.736 L 131.702 27.608 C 126.273 35.813 128.737 48.888 128.749 48.954 L 128.749 49.613 L 118.608 49.622 L 118.608 49.031 C 118.625 48.966 122.02 35.86 118.455 24.951 C 118.434 24.885 118.433 24.745 118.439 24.621 L 118.455 24.391 L 128.648 24.397 L 128.632 24.977 C 126.846 32.897 127.177 38.056 127.181 38.111 C 127.507 29.449 131.307 25.97 131.317 25.961 Z M 154.026 25.363 C 150.118 24.58 148.051 34.023 148.039 34.074 C 148.039 34.074 145.5 44.28 149.237 46.188 C 152.828 47.44 155.186 39.683 155.803 37.028 C 155.803 37.028 157.291 26.578 154.026 25.363 Z M 18.43 33.444 C 19.945 29.931 28.782 26.807 33.329 33.408 C 37.114 39.17 35.473 46.848 28.025 45.677 C 32.569 43.985 32.443 37.869 30.423 34.876 C 27.704 30.847 23.227 29.41 18.43 33.444 Z M 20.746 30.685 C 25.038 26.438 32.316 26.569 35.851 30.321 C 40.522 34.876 38.881 44.506 33.579 44.849 C 37.113 42.246 36.236 35.917 34.084 33.006 C 31.487 29.492 26.805 27.691 20.746 30.685 Z M 23.904 28.129 C 27.186 25.834 35.221 24.958 38.755 28.711 C 44.562 34.876 40.144 42.506 37.62 43.026 C 39.513 40.864 40.65 34.357 37.368 30.713 C 34.45 27.473 29.711 26.225 23.904 28.129 Z" fill="currentColor" fill-rule="evenodd"/>
</svg>
